<svg width="2797" height="2797" viewBox="0 0 2797 2797" fill="none" xmlns="http://www.w3.org/2000/svg">
<g clip-path="url(#clip0_991_232)">
<path d="M1393.03 2004.61C1729.89 2004.61 2002.97 1731.53 2002.97 1394.67C2002.97 1057.8 1729.89 784.723 1393.03 784.723C1056.17 784.723 783.085 1057.8 783.085 1394.67C783.085 1731.53 1056.17 2004.61 1393.03 2004.61Z" stroke="white" stroke-width="20" stroke-miterlimit="10"/>
<path d="M1398.5 0L1429.34 1244.86C1435.67 1309.89 1487.11 1361.44 1552.14 1367.66L2797 1398.5L1552.14 1429.34C1487.11 1435.67 1435.56 1487.11 1429.34 1552.14L1398.5 2797L1367.66 1552.14C1361.33 1487.11 1309.89 1435.56 1244.86 1429.34L0 1398.5L1244.86 1367.66C1309.89 1361.33 1361.44 1309.89 1367.66 1244.86L1398.5 0Z" fill="white"/>
</g>
<defs>
<clipPath id="clip0_991_232">
<rect width="2797" height="2797" fill="white"/>
</clipPath>
</defs>
</svg>
